<?xml version="1.0" encoding="UTF-8" standalone="no"?>
<svg
   xmlns:dc="http://purl.org/dc/elements/1.1/"
   xmlns:cc="http://creativecommons.org/ns#"
   xmlns:rdf="http://www.w3.org/1999/02/22-rdf-syntax-ns#"
   xmlns:svg="http://www.w3.org/2000/svg"
   xmlns="http://www.w3.org/2000/svg"
   xmlns:sodipodi="http://sodipodi.sourceforge.net/DTD/sodipodi-0.dtd"
   xmlns:inkscape="http://www.inkscape.org/namespaces/inkscape"
   width="270.40057"
   height="250"
   viewBox="0 0 587.49496 543.16957"
   version="1.1"
   id="svg52"
   sodipodi:docname="doghouse.svg"
   inkscape:version="0.92.5 (2060ec1f9f, 2020-04-08)">
  <metadata
     id="metadata58">
    <rdf:RDF>
      <cc:Work
         rdf:about="">
        <dc:format>image/svg+xml</dc:format>
        <dc:type
           rdf:resource="http://purl.org/dc/dcmitype/StillImage" />
      </cc:Work>
    </rdf:RDF>
  </metadata>
  <defs
     id="defs56" />
  <sodipodi:namedview
     pagecolor="#ffffff"
     bordercolor="#666666"
     borderopacity="1"
     objecttolerance="10"
     gridtolerance="10"
     guidetolerance="10"
     inkscape:pageopacity="0"
     inkscape:pageshadow="2"
     inkscape:window-width="1920"
     inkscape:window-height="1009"
     id="namedview54"
     showgrid="false"
     inkscape:zoom="2.2342138"
     inkscape:cx="86.449333"
     inkscape:cy="140.31486"
     inkscape:window-x="0"
     inkscape:window-y="0"
     inkscape:window-maximized="1"
     inkscape:current-layer="svg52" />
  <path
     d="m 250.77367,45.869063 c 11.09337,-8.06247 22.1366,-16.19362 33.26088,-24.21282 4.19353,-2.29217 10.12359,0.14136 11.51713,4.70795 0.94938,3.15809 -0.85927,6.6997 -3.71345,8.18953 -11.06658,8.13184 -21.80212,16.73483 -33.31582,24.24167 -3.76736,2.13955 -9.20189,-0.35109 -10.02469,-4.61145 -0.8309,-2.89065 -0.13378,-6.36557 2.27554,-8.31522 z"
     id="path4"
     style="fill:#1a1a1a;stroke-width:0.68681079"
     inkscape:connector-curvature="0" />
  <path
     d="M 313.27346,1.9131731 585.25052,229.24754 c 6.39167,5.55239 -2.18563,17.39898 -9.2795,11.76026 -7.59132,-4.22986 -13.19569,-11.12358 -20.23001,-16.13936 L 302.97404,13.591703 c -4.64909,-4.7439999 -1.19773,-14.09197995 5.80946,-13.57205995 1.66909,0.0625 3.22245,0.85494 4.4927,1.89635005 z"
     id="path6"
     style="fill:#1a1a1a;stroke-width:0.68681079"
     inkscape:connector-curvature="0" />
  <path
     d="m 478.79486,506.03229 31.59328,-25.412 c 3.59202,-2.07719 8.63665,-1.13722 11.18746,2.15164 2.1467,3.78426 0.55446,8.94846 -2.99861,11.28637 -10.22524,8.18335 -20.23,16.64073 -30.6764,24.54524 -4.04147,2.44017 -10.06521,0.27422 -11.51438,-4.24951 -0.67675,-2.96056 0.53959,-6.04537 2.40823,-8.32139 z"
     id="path8"
     style="fill:#1a1a1a;stroke-width:0.68681079"
     inkscape:connector-curvature="0" />
  <path
     d="m 533.73971,466.19727 c 4.20651,-66.75458 8.16138,-133.52289 12.52606,-200.26716 1.0171,-6.43425 11.65999,-7.53844 13.90723,-1.39224 2.35233,8.45671 -0.86696,17.08648 -0.29364,25.63865 -3.47568,59.27521 -6.85493,118.55728 -10.48211,177.82218 -0.95123,6.97319 -12.43609,8.29462 -14.93196,1.70817 -0.46318,-1.1092 -0.69004,-2.30899 -0.7252,-3.50796 z"
     id="path10"
     style="fill:#1a1a1a;stroke-width:0.68681079"
     inkscape:connector-curvature="0" />
  <path
     d="m 472.61356,313.72527 c -4.40898,73.70853 -8.68816,147.42394 -13.17853,221.1256 -1.41647,6.55884 -12.44295,6.92306 -14.28909,0.47179 3.13824,-74.75249 7.33445,-149.45003 11.85984,-224.12697 1.55165,-6.61893 12.75889,-7.12085 14.64693,-0.48191 0.40476,0.97452 0.69849,1.99038 0.96037,3.01105 z"
     id="path12"
     style="fill:#1a1a1a;stroke-width:0.68681079"
     inkscape:connector-curvature="0" />
  <path
     d="m 89.373137,528.69705 c 0,4.54943 76.002483,8.24173 169.642263,8.24173 93.63979,0 169.64227,-3.6923 169.64227,-8.24173 0,-4.54944 -76.00248,-8.24173 -169.64227,-8.24173 -93.63978,0 -169.642263,3.69229 -169.642263,8.24173 z"
     id="path14"
     style="fill:#1a1a1a;stroke-width:0.68681079"
     inkscape:connector-curvature="0" />
  <path
     d="m 58.466647,536.93878 c -7.99585,-81.41455 -16.20392,-162.80163 -24.06653,-244.22992 0.0911,-6.73514 10.91685,-9.21563 13.93127,-3.19202 9.35848,82.18378 17.38867,164.53926 25.2451,246.89474 0.0849,6.9361 -11.23073,9.45395 -14.08924,3.13103 -0.44248,-0.82259 -0.77582,-1.70109 -1.02142,-2.60136 z"
     id="path16"
     style="fill:#1a1a1a;stroke-width:0.68681079"
     inkscape:connector-curvature="0" />
  <path
     d="m 321.51519,501.91143 c -0.0226,-31.76088 0.045,-63.52176 -0.0335,-95.28126 -3.8993,-20.19568 -12.88251,-40.31442 -29.06858,-53.60146 -26.10774,-20.84403 -68.01625,-17.15379 -90.13705,7.86467 -17.84266,18.38661 -27.86941,44.43116 -25.7712,70.08217 0.25564,24.23755 0.55836,48.48884 -0.3577,72.71952 -1.20659,6.64009 -12.6071,6.83322 -13.90242,0.1523 -2.02555,-12.16204 0.38561,-24.49648 -0.75886,-36.71415 -0.004,-19.99925 0.01,-39.99849 0.002,-59.99705 6.49455,-26.64757 20.77328,-52.2766 43.31578,-68.53135 28.9793,-20.06724 71.34591,-19.09059 98.48867,3.82272 22.37561,19.93537 33.98546,50.13444 34.10702,79.78681 0.36526,18.82136 -0.82596,37.64616 -0.0433,56.4634 -0.0956,8.71975 0.0872,17.49994 -0.60901,26.17642 -2.14148,6.28933 -12.93128,6.15836 -14.48416,-0.5241 -0.29938,-0.78839 -0.53325,-1.59966 -0.74663,-2.41483 z"
     id="path18"
     style="fill:#1a1a1a;stroke-width:0.68681079"
     inkscape:connector-curvature="0" />
  <path
     d="m 360.6634,237.48927 c 0,4.17032 9.53843,7.55492 21.29114,7.55492 11.7527,0 21.29113,-3.3846 21.29113,-7.55492 0,-4.17031 -9.53843,-7.55492 -21.29113,-7.55492 -11.75271,0 -21.29114,3.38461 -21.29114,7.55492 z"
     id="path20"
     style="fill:#1a1a1a;stroke-width:0.68681079"
     inkscape:connector-curvature="0" />
  <path
     d="m 85.939087,237.48927 c 0,4.17032 8.61535,7.55492 19.230703,7.55492 10.61535,0 19.2307,-3.3846 19.2307,-7.55492 0,-4.17031 -8.61535,-7.55492 -19.2307,-7.55492 -10.615353,0 -19.230703,3.38461 -19.230703,7.55492 z"
     id="path22"
     style="fill:#1a1a1a;stroke-width:0.68681079"
     inkscape:connector-curvature="0" />
  <path
     d="m 69.455627,298.61543 c 0,4.17032 82.767563,7.55492 184.752103,7.55492 101.98453,0 184.7521,-3.3846 184.7521,-7.55492 0,-4.17031 -82.76757,-7.55492 -184.7521,-7.55492 -101.98454,0 -184.752103,3.38461 -184.752103,7.55492 z"
     id="path24"
     style="fill:#1a1a1a;stroke-width:0.68681079"
     inkscape:connector-curvature="0" />
  <path
     d="m 196.51562,150.2643 c 0,4.17032 19.38455,7.55492 43.26908,7.55492 23.88453,0 43.26908,-3.3846 43.26908,-7.55492 0,-4.17031 -19.38455,-7.55492 -43.26908,-7.55492 -23.88453,0 -43.26908,3.38461 -43.26908,7.55492 z"
     id="path26"
     style="fill:#1a1a1a;stroke-width:0.68681079"
     inkscape:connector-curvature="0" />
  <path
     d="m 345.55356,374.85143 c 0,4.17032 19.99993,7.55492 44.6427,7.55492 24.64278,0 44.64271,-3.3846 44.64271,-7.55492 0,-4.17031 -19.99993,-7.55492 -44.64271,-7.55492 -24.64277,0 -44.6427,3.38461 -44.6427,7.55492 z"
     id="path28"
     style="fill:#1a1a1a;stroke-width:0.68681079"
     inkscape:connector-curvature="0" />
  <path
     d="m 81.131407,375.53824 c 0,4.17032 15.99994,7.55492 35.714163,7.55492 19.71422,0 35.71416,-3.3846 35.71416,-7.55492 0,-4.17031 -15.99994,-7.55492 -35.71416,-7.55492 -19.714223,0 -35.714163,3.38461 -35.714163,7.55492 z"
     id="path30"
     style="fill:#1a1a1a;stroke-width:0.68681079"
     inkscape:connector-curvature="0" />
  <path
     d="m 355.85573,466.88408 c 0,4.17031 16.61532,7.55492 37.08778,7.55492 20.47245,0 37.08778,-3.38461 37.08778,-7.55492 0,-4.17032 -16.61533,-7.55492 -37.08778,-7.55492 -20.47246,0 -37.08778,3.3846 -37.08778,7.55492 z"
     id="path32"
     style="fill:#1a1a1a;stroke-width:0.68681079"
     inkscape:connector-curvature="0" />
  <path
     d="m 85.252267,462.0764 c 0,4.17032 13.84611,7.55492 30.906493,7.55492 17.06038,0 30.90649,-3.3846 30.90649,-7.55492 0,-4.17031 -13.84611,-7.55492 -30.90649,-7.55492 -17.060383,0 -30.906493,3.38461 -30.906493,7.55492 z"
     id="path34"
     style="fill:#1a1a1a;stroke-width:0.68681079"
     inkscape:connector-curvature="0" />
  <path
     d="m 226.04519,261.52106 c 1.17321,-2.59401 0.55993,-5.49002 0.70701,-8.23143 0.0248,-5.40719 -0.25305,-10.83306 0.26901,-16.22453 0.78035,-5.15231 0.26113,-10.37221 0.39548,-15.55626 -0.006,-2.24786 -0.0173,-4.49662 0.0668,-6.74332 0.5899,-1.18365 2.0355,-0.01 2.2037,0.89616 1.00604,1.51228 2.09464,2.97279 3.04614,4.52388 1.45961,2.40185 3.36098,4.48838 4.90898,6.8302 1.67218,2.40768 3.02293,5.01763 4.69456,7.42648 1.54849,2.33372 3.1695,4.6186 4.82842,6.87498 0.053,0.47619 0.99718,1.79718 0.85789,0.57467 v -27.07408 h 6.1813 c 0.002,2.84395 0.1619,5.74304 -0.58264,8.5192 -0.27925,4.30198 0.029,8.61398 -0.1099,12.91891 0.0322,2.51332 0.12346,5.06097 -0.45015,7.52745 -0.53903,3.8401 -0.0956,7.72181 -0.23093,11.581 v 6.84325 c -1.2638,0.59332 -1.67438,-1.17967 -2.15933,-1.96984 -2.7991,-4.89023 -7.19091,-8.67374 -9.78431,-13.69913 -0.97596,-1.83811 -1.81373,-3.77705 -3.19669,-5.36166 -1.25302,-1.26833 -1.97019,-2.9322 -2.53976,-4.59435 -0.62243,-0.79416 -0.68539,-2.0401 -1.68296,-2.50748 -1.10748,0.12164 -0.41117,1.66099 -0.57481,2.42499 -0.0145,4.94284 0.28363,9.91961 -0.48561,14.8255 -0.36366,2.93653 -0.17987,5.89689 -0.17304,8.84475 0.32106,0.98269 -0.59677,1.60384 -1.48619,1.39821 -0.74245,-0.13806 -1.49176,-0.15593 -2.232,-0.0481 h -2.47101 z"
     id="path36"
     style="fill:#1a1a1a;stroke-width:0.68681079"
     inkscape:connector-curvature="0" />
  <path
     d="m 298.16033,262.20787 c -3.57204,0.072 -7.08308,-1.1274 -10.66068,-0.68545 -4.23034,0.0108 -8.46082,-0.0102 -12.69089,-0.001 1.42355,-5.06887 3.56908,-9.89213 5.62477,-14.72591 1.28956,-2.79731 2.15103,-5.76296 2.98516,-8.71906 1.43873,-4.09964 3.62162,-7.89489 5.00383,-12.01644 0.45027,-0.8432 0.96668,-2.02321 0.21174,-2.84951 -1.29718,-1.04526 -3.06221,-0.63918 -4.59346,-0.81532 -2.2774,-0.0915 -4.55623,0.0271 -6.83425,-0.0122 -1.09285,-0.30592 -1.26167,-1.68131 -0.97211,-2.61592 0.37653,-1.30714 0.41423,-2.68502 0.39071,-4.03694 -0.50868,-1.09052 0.84375,-2.47135 1.93235,-1.89223 2.34944,0.69663 4.8508,0.0353 7.2122,0.66959 3.77553,0.65341 7.62016,0.17719 11.4196,0.44104 1.01504,0.12168 1.90267,1.14189 1.55645,2.17265 -0.27062,1.05254 -1.03928,1.88296 -1.37609,2.91133 -2.43956,5.44613 -4.17444,11.17029 -6.43892,16.68675 -1.49107,3.89573 -2.55886,7.94434 -4.15418,11.80078 -0.57318,1.35694 -1.32603,2.65782 -1.71167,4.08248 -0.0461,1.0469 1.33853,1.44697 2.12074,0.98736 1.40693,-0.44658 2.90582,-0.21687 4.35513,-0.31442 1.43756,-0.0167 2.87527,-0.016 4.31283,-0.0108 1.06511,-0.53127 2.68069,0.41437 2.38639,1.67341 -0.22239,2.41874 0.0214,4.8484 -0.0793,7.27058 z"
     id="path38"
     style="fill:#1a1a1a;stroke-width:0.68681079"
     inkscape:connector-curvature="0" />
  <path
     d="M 2.8349774,267.70895 230.85616,65.786583 c 11.19776,-4.80335 19.02603,7.2795 27.0418,12.8777 65.44552,51.510807 130.34982,103.708427 195.60372,155.459617 20.3399,16.38181 41.09532,32.32681 61.1756,48.98266 7.33788,12.70531 -15.4814,16.46217 -18.80968,4.75623 L 231.5416,77.465183 c 3.79236,1.40054 11.46562,0.70247 4.27753,4.69442 C 160.98422,147.91349 86.334757,213.87617 11.383097,279.49407 4.7976774,285.17317 -4.8414426,272.13009 2.8329874,267.71252 Z"
     id="path40"
     style="fill:#1a1a1a;stroke-width:0.68681079"
     inkscape:connector-curvature="0" />
  <path
     d="m 548.16274,247.79144 c -9.2953,7.06934 -18.43401,14.3461 -27.8337,21.27808 -3.81248,2.18007 -9.29667,0.17852 -10.80697,-3.94573 -0.93777,-3.28996 0.58978,-6.85471 3.07747,-9.04804 9.05628,-7.04737 17.74787,-14.65105 27.17298,-21.23619 4.0754,-1.85371 9.46013,0.66078 10.64626,4.98013 0.76991,2.79518 -0.0588,6.03377 -2.25576,7.97113 z"
     id="path42"
     style="fill:#1a1a1a;stroke-width:0.68681079"
     inkscape:connector-curvature="0" />
  <path
     d="m 325.63276,212.7575 c -2.65906,0.70782 -5.62917,1.01366 -7.74311,2.95706 -3.38549,3.10232 -5.1653,7.45464 -6.88322,11.60916 -1.67382,4.54813 -1.25995,9.47181 -1.12774,14.22042 0.17574,4.32917 0.67177,8.84887 2.96709,12.6277 1.60467,2.65453 3.59058,5.20115 6.28068,6.82292 1.0307,0.55726 2.61538,0.17877 2.90288,-1.06744 0.47088,-1.4149 0.44589,-2.97369 1.16359,-4.30967 0.40954,-1.25556 -0.40739,-2.63069 -1.56043,-3.15123 -1.94127,-1.50693 -2.69498,-3.95555 -3.514,-6.16687 -1.8967,-5.90637 -1.37836,-12.34817 0.4299,-18.20735 0.76985,-2.30123 2.09546,-4.64147 4.34621,-5.75692 1.64889,-0.75625 3.78515,-0.48944 5.03288,0.88598 2.63474,2.22012 3.89009,5.68858 4.06564,9.05767 0.58011,4.30905 0.48701,8.75546 -0.74807,12.94775 -0.70412,2.57623 -1.63914,5.19676 -3.41105,7.24242 -0.99347,1.00584 -2.37911,1.441 -3.71296,1.77397 -1.2886,0.49724 -1.94814,1.86201 -2.11758,3.15939 -0.0556,1.10076 -0.89855,2.05556 -0.75549,3.15068 0.3068,1.15549 1.61964,1.23997 2.59326,1.04862 1.18248,-0.17463 2.36881,-0.35763 3.53467,-0.61426 4.3708,-1.21545 7.73212,-4.7857 9.57758,-8.82552 2.25191,-4.737 2.79731,-10.1023 2.44951,-15.28429 -0.10754,-5.20485 -0.22179,-10.59062 -2.32925,-15.445 -1.83956,-4.29737 -5.87711,-7.66961 -10.53637,-8.38664 -0.30614,-0.0805 -0.6097,-0.17257 -0.90446,-0.28849 z"
     id="path44"
     style="fill:#1a1a1a;stroke-width:0.68681079"
     inkscape:connector-curvature="0" />
  <path
     d="m 197.19914,212.07069 c -3.08687,-0.55815 -6.21104,0.94731 -8.29942,3.16365 -2.48921,2.1274 -3.39504,5.39154 -4.90301,8.17786 -0.61405,1.20247 -1.22225,2.40844 -1.78564,3.6357 -0.3932,6.18191 -1.50775,12.44089 -0.32214,18.60433 0.6842,4.86894 2.9006,9.71837 6.86948,12.763 1.03591,0.82521 2.18151,1.54959 3.46063,1.9274 1.17349,-0.15942 1.99203,-1.46634 1.70769,-2.59827 0.0803,-1.73152 1.23337,-3.34827 0.78811,-5.11159 -0.97609,-1.60762 -3.03007,-2.36318 -3.61613,-4.23982 -3.43968,-6.86165 -3.3278,-15.15723 -0.51544,-22.21215 0.81099,-2.19271 2.1333,-4.46564 4.39511,-5.38995 2.45164,-0.74245 5.14215,0.73653 6.27484,2.94044 2.17101,3.37458 2.40253,7.51028 2.63564,11.40037 0.19449,5.33522 -0.88352,10.899 -3.99731,15.32619 -1.05611,1.39127 -2.76455,1.99594 -4.34676,2.55198 -1.25899,0.74086 -1.92753,2.1945 -2.01778,3.61255 -0.25835,1.1386 -0.92582,2.33207 -0.49492,3.50604 0.64821,1.08825 2.16737,1.13646 3.20493,0.63532 4.50857,-1.09382 8.87703,-3.59319 11.38183,-7.59888 2.38948,-3.80596 2.88996,-8.39077 3.19065,-12.77537 0.20684,-4.82622 0.30081,-9.71562 -0.62515,-14.47934 -0.87582,-4.32416 -2.86902,-8.61879 -6.42491,-11.36741 -1.86277,-1.46119 -4.1572,-2.50157 -6.56042,-2.47334 z"
     id="path46"
     style="fill:#1a1a1a;stroke-width:0.68681079"
     inkscape:connector-curvature="0" />
  <path
     d="m 158.39556,232.67089 c 2.29821,-2.61475 4.50328,-5.62402 4.89367,-9.18747 0.27948,-3.22347 -0.68449,-6.67614 -3.06455,-8.95257 -2.77959,-2.12953 -6.34187,-2.71071 -9.72112,-3.1706 -1.32321,0.0269 -2.66036,-0.17434 -3.97361,-0.0546 -0.99849,0.40406 -1.39835,1.64237 -1.15563,2.63275 0.008,11.17098 -0.10026,22.34127 -0.0173,33.51225 1.1491,0.0591 1.72129,-1.17184 2.72568,-1.49395 l 3.44442,-2.29628 v -6.86811 c 2.04079,0.24322 4.02307,1.22259 5.33439,2.82471 0.925,2.41586 0.95701,5.1324 0.22882,7.60369 -0.88462,1.74353 -2.40872,3.07231 -4.0627,4.06736 -1.00672,0.22678 -1.98385,-0.95735 -1.56854,-1.90254 0.26518,-1.51139 -0.007,-3.05095 0.16851,-4.56914 -0.28528,-1.02761 -1.59753,-1.59856 -2.54464,-1.10968 -1.09443,0.12061 -2.25933,-0.30061 -3.29724,0.21005 -1.02747,1.8989 -0.25698,4.07904 -0.40685,6.10939 -0.0623,2.03165 -0.10365,4.06516 -0.042,6.09737 -0.58905,0.97142 0.50868,2.37046 1.59237,2.02897 2.88399,-0.11919 5.96049,0.15922 8.59681,-1.2513 4.74895,-2.56146 8.33308,-7.49104 8.70189,-12.94501 0.20428,-4.42045 -1.96799,-9.00683 -5.83274,-11.28498 z"
     id="path48"
     style="fill:#1a1a1a;stroke-width:0.68681079"
     inkscape:connector-curvature="0" />
  <path
     d="m 151.66815,230.29215 v -13.73621 l 2.06043,0.68681 2.06043,1.37362 1.37362,3.43405 -1.37362,4.12087 -2.06043,2.74724 z"
     id="path50"
     style="fill:#ffffff;stroke-width:0.68681079"
     inkscape:connector-curvature="0" />
</svg>
